<svg width="137" height="33" viewBox="0 0 137 33" fill="none" xmlns="http://www.w3.org/2000/svg">
<path d="M16.5391 17.2695C16.5391 19.1992 16.168 20.8125 15.4258 22.1094C14.6914 23.3984 13.625 24.3711 12.2266 25.0273C10.8281 25.6758 9.14453 26 7.17578 26H2.32422V8.86719H7.70312C9.5 8.86719 11.0586 9.1875 12.3789 9.82812C13.6992 10.4609 14.7227 11.4023 15.4492 12.6523C16.1758 13.8945 16.5391 15.4336 16.5391 17.2695ZM12.7656 17.3633C12.7656 16.0977 12.5781 15.0586 12.2031 14.2461C11.8359 13.4258 11.2891 12.8203 10.5625 12.4297C9.84375 12.0391 8.95312 11.8438 7.89062 11.8438H5.95703V23H7.51562C9.28906 23 10.6055 22.5273 11.4648 21.582C12.332 20.6367 12.7656 19.2305 12.7656 17.3633ZM30.2031 21.2422C30.2031 22.2578 29.957 23.1406 29.4648 23.8906C28.9727 24.6406 28.2539 25.2188 27.3086 25.625C26.3711 26.0312 25.2305 26.2344 23.8867 26.2344C23.293 26.2344 22.7109 26.1953 22.1406 26.1172C21.5781 26.0391 21.0352 25.9258 20.5117 25.7773C19.9961 25.6211 19.5039 25.4297 19.0352 25.2031V21.8281C19.8477 22.1875 20.6914 22.5117 21.5664 22.8008C22.4414 23.0898 23.3086 23.2344 24.168 23.2344C24.7617 23.2344 25.2383 23.1562 25.5977 23C25.9648 22.8438 26.2305 22.6289 26.3945 22.3555C26.5586 22.082 26.6406 21.7695 26.6406 21.418C26.6406 20.9883 26.4961 20.6211 26.207 20.3164C25.918 20.0117 25.5195 19.7266 25.0117 19.4609C24.5117 19.1953 23.9453 18.9102 23.3125 18.6055C22.9141 18.418 22.4805 18.1914 22.0117 17.9258C21.543 17.6523 21.0977 17.3203 20.6758 16.9297C20.2539 16.5391 19.9062 16.0664 19.6328 15.5117C19.3672 14.9492 19.2344 14.2773 19.2344 13.4961C19.2344 12.4727 19.4688 11.5977 19.9375 10.8711C20.4062 10.1445 21.0742 9.58984 21.9414 9.20703C22.8164 8.81641 23.8477 8.62109 25.0352 8.62109C25.9258 8.62109 26.7734 8.72656 27.5781 8.9375C28.3906 9.14062 29.2383 9.4375 30.1211 9.82812L28.9492 12.6523C28.1602 12.332 27.4531 12.0859 26.8281 11.9141C26.2031 11.7344 25.5664 11.6445 24.918 11.6445C24.4648 11.6445 24.0781 11.7188 23.7578 11.8672C23.4375 12.0078 23.1953 12.2109 23.0312 12.4766C22.8672 12.7344 22.7852 13.0352 22.7852 13.3789C22.7852 13.7852 22.9023 14.1289 23.1367 14.4102C23.3789 14.6836 23.7383 14.9492 24.2148 15.207C24.6992 15.4648 25.3008 15.7656 26.0195 16.1094C26.8945 16.5234 27.6406 16.957 28.2578 17.4102C28.8828 17.8555 29.3633 18.3828 29.6992 18.9922C30.0352 19.5938 30.2031 20.3438 30.2031 21.2422ZM40.5625 26L36.4375 12.5586H36.332C36.3477 12.8789 36.3711 13.3633 36.4023 14.0117C36.4414 14.6523 36.4766 15.3359 36.5078 16.0625C36.5391 16.7891 36.5547 17.4453 36.5547 18.0312V26H33.3086V8.86719H38.2539L42.3086 21.9688H42.3789L46.6797 8.86719H51.625V26H48.2383V17.8906C48.2383 17.3516 48.2461 16.7305 48.2617 16.0273C48.2852 15.3242 48.3125 14.6562 48.3438 14.0234C48.375 13.3828 48.3984 12.9023 48.4141 12.582H48.3086L43.8906 26H40.5625ZM67.5742 19.4258C67.5742 20.5195 67.4258 21.4883 67.1289 22.332C66.8398 23.1758 66.4141 23.8906 65.8516 24.4766C65.2969 25.0547 64.625 25.4922 63.8359 25.7891C63.0547 26.0859 62.1719 26.2344 61.1875 26.2344C60.2656 26.2344 59.418 26.0859 58.6445 25.7891C57.8789 25.4922 57.2109 25.0547 56.6406 24.4766C56.0781 23.8906 55.6406 23.1758 55.3281 22.332C55.0234 21.4883 54.8711 20.5195 54.8711 19.4258C54.8711 17.9727 55.1289 16.7422 55.6445 15.7344C56.1602 14.7266 56.8945 13.9609 57.8477 13.4375C58.8008 12.9141 59.9375 12.6523 61.2578 12.6523C62.4844 12.6523 63.5703 12.9141 64.5156 13.4375C65.4688 13.9609 66.2148 14.7266 66.7539 15.7344C67.3008 16.7422 67.5742 17.9727 67.5742 19.4258ZM58.5156 19.4258C58.5156 20.2852 58.6094 21.0078 58.7969 21.5938C58.9844 22.1797 59.2773 22.6211 59.6758 22.918C60.0742 23.2148 60.5938 23.3633 61.2344 23.3633C61.8672 23.3633 62.3789 23.2148 62.7695 22.918C63.168 22.6211 63.457 22.1797 63.6367 21.5938C63.8242 21.0078 63.918 20.2852 63.918 19.4258C63.918 18.5586 63.8242 17.8398 63.6367 17.2695C63.457 16.6914 63.168 16.2578 62.7695 15.9688C62.3711 15.6797 61.8516 15.5352 61.2109 15.5352C60.2656 15.5352 59.5781 15.8594 59.1484 16.5078C58.7266 17.1562 58.5156 18.1289 58.5156 19.4258ZM73.6445 26L68.6523 12.8984H72.3906L74.9219 20.3633C75.0625 20.8008 75.1719 21.2617 75.25 21.7461C75.3359 22.2305 75.3945 22.6641 75.4258 23.0469H75.5195C75.543 22.6328 75.5977 22.1914 75.6836 21.7227C75.7773 21.2539 75.8984 20.8008 76.0469 20.3633L78.5664 12.8984H82.3047L77.3125 26H73.6445ZM87.7656 12.8984V26H84.1914V12.8984H87.7656ZM85.9844 7.76562C86.5156 7.76562 86.9727 7.89063 87.3555 8.14062C87.7383 8.38281 87.9297 8.83984 87.9297 9.51172C87.9297 10.1758 87.7383 10.6367 87.3555 10.8945C86.9727 11.1445 86.5156 11.2695 85.9844 11.2695C85.4453 11.2695 84.9844 11.1445 84.6016 10.8945C84.2266 10.6367 84.0391 10.1758 84.0391 9.51172C84.0391 8.83984 84.2266 8.38281 84.6016 8.14062C84.9844 7.89063 85.4453 7.76562 85.9844 7.76562ZM96.9297 12.6523C98.1406 12.6523 99.1836 12.8867 100.059 13.3555C100.934 13.8164 101.609 14.4883 102.086 15.3711C102.562 16.2539 102.801 17.332 102.801 18.6055V20.3398H94.3516C94.3906 21.3477 94.6914 22.1406 95.2539 22.7188C95.8242 23.2891 96.6133 23.5742 97.6211 23.5742C98.457 23.5742 99.2227 23.4883 99.918 23.3164C100.613 23.1445 101.328 22.8867 102.062 22.543V25.3086C101.414 25.6289 100.734 25.8633 100.023 26.0117C99.3203 26.1602 98.4648 26.2344 97.457 26.2344C96.1445 26.2344 94.9805 25.9922 93.9648 25.5078C92.957 25.0234 92.1641 24.2852 91.5859 23.293C91.0156 22.3008 90.7305 21.0508 90.7305 19.543C90.7305 18.0117 90.9883 16.7383 91.5039 15.7227C92.0273 14.6992 92.7539 13.9336 93.6836 13.4258C94.6133 12.9102 95.6953 12.6523 96.9297 12.6523ZM96.9531 15.1953C96.2578 15.1953 95.6797 15.418 95.2188 15.8633C94.7656 16.3086 94.5039 17.0078 94.4336 17.9609H99.4492C99.4414 17.4297 99.3438 16.957 99.1562 16.543C98.9766 16.1289 98.7031 15.8008 98.3359 15.5586C97.9766 15.3164 97.5156 15.1953 96.9531 15.1953Z" fill="white"/>
<path d="M132.95 4H114.05C112.976 4 111.946 4.39509 111.186 5.09835C110.427 5.80161 110 6.75544 110 7.75V25.25C110 26.2446 110.427 27.1984 111.186 27.9017C111.946 28.6049 112.976 29 114.05 29H132.95C134.024 29 135.054 28.6049 135.814 27.9017C136.573 27.1984 137 26.2446 137 25.25V7.75C137 6.75544 136.573 5.80161 135.814 5.09835C135.054 4.39509 134.024 4 132.95 4ZM129.021 6.5L123.622 11.5H117.978L123.378 6.5H129.021ZM112.7 7.75C112.7 7.41848 112.842 7.10054 113.095 6.86612C113.349 6.6317 113.692 6.5 114.05 6.5H119.572L114.172 11.5H112.7V7.75ZM134.3 25.25C134.3 25.5815 134.158 25.8995 133.905 26.1339C133.651 26.3683 133.308 26.5 132.95 26.5H114.05C113.692 26.5 113.349 26.3683 113.095 26.1339C112.842 25.8995 112.7 25.5815 112.7 25.25V14H134.3V25.25ZM134.3 11.5H127.428L132.829 6.5H132.95C133.308 6.5 133.651 6.6317 133.905 6.86612C134.158 7.10054 134.3 7.41848 134.3 7.75V11.5Z" fill="white"/>
</svg>
